<svg width="50" height="57" viewBox="0 0 50 57" fill="none" xmlns="http://www.w3.org/2000/svg">
<path d="M47.0875 1.2125C46.375 0.7375 45.6625 0.5 44.95 0.5C44.7125 0.5 44.475 0.5 44.475 0.5H44H33.7875H8.84999C5.76249 0.5 3.14999 2.875 3.14999 5.9625V8.8125H1.24999C0.774988 8.8125 0.299988 9.2875 0.299988 9.7625V14.75C0.299988 15.225 0.774988 15.7 1.24999 15.7H3.38749V19.5H1.24999C0.774988 19.5 0.299988 19.975 0.299988 20.45V25.4375C0.299988 25.9125 0.774988 26.3875 1.24999 26.3875H3.38749V30.1875H1.24999C0.774988 30.1875 0.299988 30.6625 0.299988 31.1375V36.125C0.299988 36.6 0.774988 37.075 1.24999 37.075H3.38749V40.875H1.24999C0.774988 40.875 0.299988 41.35 0.299988 41.825V46.8125C0.299988 47.2875 0.774988 47.7625 1.24999 47.7625H3.38749V51.0875C3.38749 54.175 5.76249 56.55 8.84999 56.55H44.475C44.7125 56.55 44.95 56.55 44.95 56.55C45.6625 56.55 46.375 56.3125 47.0875 55.8375C47.5625 55.6 48.0375 55.3625 48.275 54.8875C49.225 53.9375 49.9375 52.5125 49.9375 51.0875V5.9625C49.9375 4.5375 49.4625 3.1125 48.275 2.1625C47.8 1.6875 47.5625 1.45 47.0875 1.2125ZM40.4375 12.1375C40.2 11.9 39.9625 11.6625 39.4875 11.6625C39.25 11.6625 38.775 11.9 38.5375 12.1375L34.5 16.175V2.4H44.2375V16.175L40.4375 12.1375Z" fill="#FCB401"/>
</svg>
