<svg width="76" height="76" viewBox="0 0 76 76" fill="none" xmlns="http://www.w3.org/2000/svg">
<g clip-path="url(#clip0_68_19)">
<path d="M51.9474 25.1176C51.1153 29.3112 50.2832 33.7845 49.7285 37.9782C48.8964 41.8922 48.3416 45.8063 47.5095 50H33.9185C33.3637 46.0859 31.6995 44.1289 28.9258 44.1289C26.1522 44.1289 23.9332 46.3655 23.3785 50C20.6048 50 18.1085 50 15.3348 50C14.2253 50 13.6706 48.8817 13.6706 47.7634C13.6706 46.9246 13.6706 46.3655 13.9479 45.5268C13.3932 45.5268 12.5611 45.5268 12.0064 45.5268C11.1743 45.5268 10.6195 45.2472 10.6195 44.4084C10.6195 43.5697 11.1743 43.2901 12.0064 43.2901C15.3348 43.2901 18.6632 43.2901 21.9916 43.2901C22.269 43.2901 22.8237 43.2901 23.1011 43.2901C23.3785 43.0106 23.9332 42.731 23.9332 42.1718C23.9332 41.8922 23.3785 41.3331 23.1011 41.0535C22.8237 40.7739 22.5464 41.0535 22.269 41.0535C17.2764 41.0535 12.2837 41.0535 7.2911 41.0535C7.01373 41.0535 6.45899 41.0535 6.18163 41.0535C5.34952 41.0535 4.79478 40.7739 5.07215 39.9352C5.07215 39.6556 5.90426 39.0965 6.18163 39.0965C7.01373 38.8169 7.84584 39.0965 8.95531 39.0965C12.2837 39.0965 15.3348 39.0965 18.6632 39.0965C19.4953 39.0965 20.3274 39.0965 20.3274 37.9782C20.3274 36.8598 19.4953 36.8598 18.6632 36.8598C17.2764 36.8598 15.8895 36.8598 14.5027 36.8598C13.6706 36.8598 13.1158 36.5803 13.1158 35.7415C13.1158 34.9028 13.6706 34.6232 14.5027 34.6232C17.8311 34.6232 20.8822 34.6232 24.2106 34.6232C24.488 34.6232 25.0427 34.6232 25.3201 34.6232C25.5974 34.3436 26.1522 34.0641 26.1522 33.5049C26.1522 33.2253 25.5974 32.6662 25.3201 32.6662C25.0427 32.3866 24.488 32.6662 24.2106 32.6662C20.8822 32.6662 17.5537 32.6662 14.2253 32.6662C13.3932 32.6662 12.5611 32.6662 12.5611 31.5479C12.5611 30.7091 13.3932 30.4296 13.9479 30.4296C17.8311 30.4296 21.9916 30.4296 25.8748 30.4296C26.1522 30.4296 26.7069 30.4296 26.9843 30.4296C27.2616 30.15 27.8164 29.8704 27.8164 29.5908C27.8164 29.3112 27.2616 28.7521 26.9843 28.4725C26.7069 28.1929 26.1522 28.4725 25.8748 28.4725C20.3274 28.4725 11.4516 28.4725 8.12321 28.1929C7.2911 28.1929 7.56847 26.795 8.12321 26.2359H8.40057C10.3422 25.9563 12.2837 26.2359 14.2253 26.2359C15.0574 26.2359 15.6122 26.2359 16.4443 26.2359C17.2764 26.2359 17.8311 25.9563 17.8311 25.1176C17.8311 24.838 17.8311 24.5584 18.1085 24.2788C18.3858 22.6014 19.2179 22.0422 20.8822 22.0422C29.758 22.0422 38.6337 22.0422 47.5095 22.0422H49.7285C51.3927 21.7626 52.2248 22.881 51.9474 25.1176Z" fill="#19B400"/>
<path d="M53.0741 25C56.0617 25 58.7778 25 61.4938 25C62.3086 25 63.1235 25.5455 63.6667 26.0909C66.1111 29.0909 68.2839 32.0909 70.4568 35.0909C71 35.6364 71 36.7273 71 37.2727C70.7284 40.2727 70.1852 43.5455 69.642 46.5455C69.3704 48.1818 68.5556 49 66.9259 49C66.1111 49 65.0247 49 64.2099 49H63.9383C63.9383 47.0909 63.6667 45.4545 62.037 44.0909C61.2222 43.5455 60.1358 43 59.0494 43C56.0617 42.7273 54.1605 45.1818 53.6173 49C52.2593 49 50.6296 49 49 49C50.0864 41.0909 51.716 33.1818 53.0741 25ZM65.5679 34C64.2099 32.0909 63.1235 30.1818 62.037 28.5455C62.037 28.2727 61.4938 28.2727 61.2222 28.2727C59.0494 28.2727 56.8765 28.2727 54.7037 28.2727C54.4321 28.2727 53.8889 28.5455 53.8889 28.8182C53.6173 30.4545 53.3457 32.3636 53.0741 34.2727C57.4198 34 61.2222 34 65.5679 34Z" fill="#19B400"/>
<path d="M63 48.7222C63 51.5 60.8182 54 58.3636 54C55.9091 54 54 51.7778 54 49.2778C54 46.5 56.1818 44 58.9091 44C61.0909 44 63 46.2222 63 48.7222ZM58.3636 46.5C57 46.5 55.9091 47.8889 55.9091 49.2778C55.9091 50.6667 57 51.7778 58.0909 51.7778C59.4545 51.7778 60.5455 50.3889 60.5455 49C60.5455 47.6111 59.7273 46.5 58.3636 46.5Z" fill="#19B400"/>
<path d="M24 49.2778C24 46.5 26.1176 44 28.7647 44C31.1471 44 33 46.2222 33 48.7222C33 51.5 30.8824 54 28.2353 54C25.5882 54 24 52.0556 24 49.2778ZM28.2353 51.7778C29.5588 51.7778 30.6176 50.3889 30.6176 49C30.6176 47.6111 29.5588 46.5 28.5 46.5C27.1765 46.5 26.1176 47.8889 26.1176 49.2778C26.1176 50.6667 27.1765 51.7778 28.2353 51.7778Z" fill="#19B400"/>
</g>
<defs>
<clipPath id="clip0_68_19">
<rect width="76" height="76" fill="white"/>
</clipPath>
</defs>
</svg>
