<svg id="Layer_1" data-name="Layer 1" xmlns="http://www.w3.org/2000/svg" viewBox="0 0 40 40.01">
  <defs>
    <style>
      .cls-1 {
        fill: #fcb401;
      }
    </style>
  </defs>
  <path class="cls-1" d="M32.87,0H7.13A7.13,7.13,0,0,0,0,7.13V32.88A7.13,7.13,0,0,0,7.13,40H32.87A7.13,7.13,0,0,0,40,32.88V7.13A7.13,7.13,0,0,0,32.87,0ZM17.67,13.07a.16.16,0,0,0-.11.14V33.09c0,.09-.09.16-.21.16H12.91c-.12,0-.22-.07-.22-.16V11a.17.17,0,0,1,.11-.14l1.39-.58,1.39-.61L17,9.09l1.38-.61,1.39-.62,1.39-.61,1.06-.47c.14-.06.32,0,.32.14l-.07,3.92a.16.16,0,0,1-.1.14l-1.55.72-1.39.61L18,12.92Zm9.64,15.59v.83a.16.16,0,0,1-.1.14L20,33.23l-.11,0h-.56a.18.18,0,0,1-.2-.16V29.67a.14.14,0,0,1,.09-.13l4.74-2.27a.16.16,0,0,0,.1-.14v-.91c0-.13.19-.2.32-.13l2.88,1.61a.17.17,0,0,1,.09.13Zm0-6.27v.83a.16.16,0,0,1-.1.14L20,27a.2.2,0,0,1-.11,0h-.56a.18.18,0,0,1-.2-.16V23.4a.15.15,0,0,1,.09-.14L23.92,21a.16.16,0,0,0,.1-.14V20c0-.13.19-.21.32-.13l2.88,1.61a.15.15,0,0,1,.09.13Zm0-6.42v.83a.16.16,0,0,1-.1.13L20,20.53a.2.2,0,0,1-.11,0h-.56a.19.19,0,0,1-.2-.16V17a.15.15,0,0,1,.09-.13l4.74-2.27a.16.16,0,0,0,.1-.13v-.92c0-.13.19-.2.32-.13L27.22,15a.17.17,0,0,1,.09.13Z"/>
</svg>
