<svg width="32" height="32" viewBox="0 0 32 32" fill="none" xmlns="http://www.w3.org/2000/svg">
<g clip-path="url(#clip0_87_202)">
<path d="M27.4 8.00011V5.60011C27.4 5.10011 27 4.70011 26.5 4.70011C26 4.70011 25.6 5.10011 25.6 5.60011V8.00011H23.5V5.60011C23.5 5.10011 23.1 4.70011 22.6 4.70011C22.1 4.70011 21.7 5.10011 21.7 5.60011V8.00011H21.1V11.4001C21.1 12.9001 22 14.1001 23.4 14.6001V23.0001C23.4 24.5001 21.9 25.6001 20.5 25.7001C19.5 25.8001 18.5 25.5001 17.8 24.8001C17.4 24.4001 16.9 23.8001 16.9 22.9001V9.80011C16.9 8.30011 16.3 6.80011 15.3 5.90011C14.2 4.90011 12.8 4.40011 11.4 4.50011C10.5 4.60011 9.49998 4.90011 8.69998 5.40011C7.39998 6.30011 6.49998 8.00011 6.49998 9.80011V17.1001C5.09998 17.5001 4.09998 18.8001 4.09998 20.3001V23.7001H4.69998V26.1001C4.69998 26.6001 5.09998 27.0001 5.59998 27.0001C6.09998 27.0001 6.49998 26.6001 6.49998 26.1001V23.7001H8.59998V26.1001C8.59998 26.6001 8.99998 27.0001 9.49998 27.0001C9.99998 27.0001 10.4 26.6001 10.4 26.1001V23.7001H11V20.3001C11 18.8001 9.99998 17.5001 8.59998 17.1001V9.80011C8.59998 8.60011 9.09998 7.50011 9.99998 7.00011C10.5 6.70011 11.1 6.50011 11.6 6.40011C12.5 6.30011 13.4 6.70011 14.1 7.30011C14.7 7.90011 15.1 8.80011 15.1 9.80011V23.0001C15.1 24.3001 15.6 25.5001 16.6 26.3001C17.6 27.2001 18.9 27.7001 20.3 27.7001C20.5 27.7001 20.7 27.7001 20.8 27.7001C23.1 27.5001 25.5 25.6001 25.5 23.0001V14.7001C27 14.3001 28.1 13.0001 28.1 11.4001V8.00011H27.4ZM7.49998 21.2001C6.89998 21.2001 6.49998 20.7001 6.49998 20.2001C6.49998 19.6001 6.99998 19.2001 7.49998 19.2001C7.99998 19.2001 8.49998 19.7001 8.49998 20.2001C8.59998 20.8001 8.09998 21.2001 7.49998 21.2001ZM24.6 12.6001C24 12.6001 23.6 12.1001 23.6 11.6001C23.6 11.0001 24.1 10.6001 24.6 10.6001C25.1 10.6001 25.6 11.1001 25.6 11.6001C25.6 12.1001 25.1 12.6001 24.6 12.6001Z" fill="#393131"/>
</g>
<defs>
<clipPath id="clip0_87_202">
<rect width="32" height="32" fill="white"/>
</clipPath>
</defs>
</svg>
