<svg id="Layer_1" data-name="Layer 1" xmlns="http://www.w3.org/2000/svg" viewBox="0 0 1989.26 411.93">
  <defs>
    <style>
      .cls-1 {
        fill: #fcb401;
      }

      .cls-2 {
        fill: #fff;
      }
    </style>
  </defs>
  <g>
    <path class="cls-1" d="M573.71,129.5v61.64h71.07v38.44H573.71V293.4h82.66v39.53H530.91V90H656.37v39.53H573.71Z" transform="translate(0)"/>
    <path class="cls-1" d="M687.94,265.84V157.06c0-43.16,30.81-71.43,77.23-71.43,46.05,0,76.5,28.27,76.5,71.43V177H798.9V158.12c0-20.31-13.77-33-33.73-33-20.66,0-34.07,12.68-34.07,33v106.6c0,20.31,13.41,33,34.07,33,19.93,0,33.73-12.71,33.73-33V245.85h42.77v19.93c0,43.16-30.45,71.43-76.5,71.43C718.75,337.26,687.94,309,687.94,265.84Z" transform="translate(0)"/>
    <path class="cls-1" d="M872.12,264V158.86c0-44.25,31.19-73.26,78.68-73.26,47.14,0,78,29,78,73.26V264c0,44.25-30.81,73.25-78,73.25C903.31,337.26,872.12,308.26,872.12,264ZM986,262.92V160c0-21-14.15-34.82-35.17-34.82-21.75,0-35.52,13.77-35.52,34.82v103c0,21,13.77,34.81,35.52,34.81C971.82,297.73,986,283.94,986,262.92Z" transform="translate(0)"/>
    <path class="cls-1" d="M1066.83,90h50.41l59.81,162.78h3.28l-2.19-16.68V89.94h43.16V332.87h-50.76l-59.46-162.78h-3.27l1.82,16.68V332.9h-42.8Z" transform="translate(0)"/>
    <path class="cls-1" d="M1370,167.55v-9.43c0-19.93-13.41-33-33.72-33-20.67,0-34.08,12.68-34.08,33V266.9c0,19.57,13.41,33,34.08,33,19.93,0,33.72-13.06,33.72-33V238.63h-30.8V202.37h73.6v63.44c0,43.51-30.45,71.43-76.49,71.43-46.4,0-77.24-28.27-77.24-71.43V157c0-43.15,30.81-71.43,77.24-71.43,46,0,76.49,27.92,76.49,71.43v10.52Z" transform="translate(0)"/>
    <path class="cls-1" d="M1530.57,147.27v46h-6.9c-23.2,0-36.26,15.59-36.26,34.81v104.8h-40.62V151.63h40.62v24.65h1.83c5.45-18.13,18.13-29,36.26-29Z" transform="translate(0)"/>
    <path class="cls-1" d="M1547.25,277.78V206.7c0-35.52,25.38-59.46,63.82-59.46,38.06,0,63.44,23.94,63.44,59.46v71.08c0,35.52-25.38,59.46-63.44,59.46C1572.63,337.26,1547.25,313.33,1547.25,277.78Zm86.67-.36V207.09c0-13.42-9.08-22.5-22.85-22.5-14.15,0-23.2,9-23.2,22.5v70.33c0,13.42,9.08,22.49,23.2,22.49C1624.84,299.91,1633.92,290.84,1633.92,277.42Z" transform="translate(0)"/>
    <path class="cls-1" d="M1826.45,151.61V332.9h-40.63V313.68h-2.53c-5.45,13.77-19.22,23.56-37.71,23.56-25,0-42.42-17.78-42.42-43.87V151.61h40.63v126.9c0,12.68,8,20.67,20,20.67,13.06,0,22.11-9.44,22.11-20.31V151.61Z" transform="translate(0)"/>
    <path class="cls-1" d="M1989.26,195.85v92.83c0,28.65-18.49,48.58-45.7,48.58-18.13,0-33-9.78-38.79-24.29h-1.83v85.2h-40.62V151.61h40.62v19.93h1.83c5.81-14.51,20.31-24.3,38.79-24.3C1970.75,147.27,1989.26,167.2,1989.26,195.85Zm-40.63,12c0-13.77-9.07-22.49-22.49-22.49-13.76,0-23.2,10.14-23.2,22.11v69.63c0,12,9.44,22.11,23.2,22.11,13.42,0,22.49-8.7,22.49-22.49Z" transform="translate(0)"/>
  </g>
  <path class="cls-1" d="M338.52,411.93H73.42A73.42,73.42,0,0,1,0,338.52V73.42A73.43,73.43,0,0,1,73.42,0h265.1a73.42,73.42,0,0,1,73.41,73.42v265.1A73.41,73.41,0,0,1,338.52,411.93Z" transform="translate(0)"/>
  <g>
    <path class="cls-2" d="M217.58,74.7,203.3,81,189,87.29l-14.29,6.3-14.28,6.3-14.29,6.3-14.28,5.91a1.63,1.63,0,0,0-1.12,1.45V340.7c0,.9,1,1.63,2.18,1.63h45.78c1.19,0,2.18-.73,2.18-1.63V136a1.64,1.64,0,0,1,1.09-1.42l3.54-1.55,14.29-6.3,14.28-6.29L230,113.06a1.63,1.63,0,0,0,1-1.39l.76-40.38c0-1.28-1.82-2.1-3.3-1.44Z" transform="translate(0)"/>
    <path class="cls-2" d="M250.68,137.92c-1.39-.79-3.33,0-3.33,1.34v9.37a1.62,1.62,0,0,1-1,1.42l-48.77,23.34a1.6,1.6,0,0,0-1,1.42V210a1.93,1.93,0,0,0,2.1,1.64h5.75a2.56,2.56,0,0,0,1.12-.25l74.67-37a1.61,1.61,0,0,0,1-1.39V155.86a1.53,1.53,0,0,0-.87-1.34Z" transform="translate(0)"/>
    <path class="cls-2" d="M250.68,204.06c-1.39-.79-3.33,0-3.33,1.33v9.38a1.62,1.62,0,0,1-1,1.42l-48.77,23.34a1.6,1.6,0,0,0-1,1.42v35.22a1.92,1.92,0,0,0,2.1,1.63h5.75a2.56,2.56,0,0,0,1.12-.24l74.67-37.05a1.61,1.61,0,0,0,1-1.39V221.94a1.53,1.53,0,0,0-.87-1.33Z" transform="translate(0)"/>
    <path class="cls-2" d="M250.68,268.64c-1.39-.79-3.33,0-3.33,1.34v9.38a1.63,1.63,0,0,1-1,1.42l-48.77,23.33a1.6,1.6,0,0,0-1,1.42v35.22a1.93,1.93,0,0,0,2.1,1.64h5.75a2.43,2.43,0,0,0,1.12-.25l74.67-37.05a1.6,1.6,0,0,0,1-1.39V286.58a1.53,1.53,0,0,0-.87-1.33Z" transform="translate(0)"/>
  </g>
</svg>
