<svg width="32" height="32" viewBox="0 0 32 32" fill="none" xmlns="http://www.w3.org/2000/svg">
<g clip-path="url(#clip0_87_210)">
<path d="M15.5 17.8C12.7 17.8 10.5 20.1 10.5 22.8C10.5 25.6 12.8 27.8 15.5 27.8C18.2 27.8 20.5 25.5 20.5 22.8C20.6 20 18.3 17.8 15.5 17.8ZM15 24.9L12.8 22.8L13.6 22L14.9 23.3L17.4 20.8L18.3 21.7001L15 24.9Z" fill="#393131"/>
<path d="M27.9 23.3999C24.1 19.5999 20.4 15.8999 16.6 12.0999C16.7 11.5999 17.2 8.99991 15.6 6.69991C14.1 4.39991 11.1 3.29991 8.2 3.79991L11.5 7.09991C11.8 7.39991 11.9 7.79991 11.8 8.09991L11.2 10.0999C11.1 10.4999 10.8 10.6999 10.5 10.7999L8.5 11.3999C8.1 11.4999 7.7 11.3999 7.5 11.0999L4.1 7.89991C4.1 7.99991 3.1 11.5999 5.6 14.3999C7.3 16.2999 10 16.9999 12.6 16.2999C12.8 16.4999 13 16.6999 13.3 16.9999C16.2 15.9999 19.2 16.9999 20.8 19.1999C22.6 21.7999 21.4 24.7999 21.3 24.9999C22.1 25.7999 23 26.6999 23.8 27.4999C24.9 28.5999 26.6 28.6999 27.7 27.7999C28.9 26.8999 29.2 24.7999 27.9 23.3999ZM25.2 26.1999C24.4 26.1999 23.8 25.5999 23.8 24.7999C23.8 23.9999 24.4 23.3999 25.2 23.3999C26 23.3999 26.6 23.9999 26.6 24.7999C26.6 25.4999 26 26.1999 25.2 26.1999Z" fill="#393131"/>
</g>
<defs>
<clipPath id="clip0_87_210">
<rect width="32" height="32" fill="white"/>
</clipPath>
</defs>
</svg>
