<svg width="90" height="30" viewBox="0 0 90 30" fill="none" xmlns="http://www.w3.org/2000/svg">
<path d="M25.3084 26.6919H27.2093C28.3098 26.6919 28.8434 26.3676 28.8434 25.7189C28.8434 25.1027 28.3765 24.7784 27.4427 24.7784H25.3417V26.6919H25.3084ZM24.4413 29.9027V24.1297H27.376C27.8429 24.1297 28.2431 24.1622 28.5433 24.227C28.8434 24.2919 29.1435 24.4541 29.377 24.7459C29.6104 25.0054 29.7438 25.3297 29.7438 25.7189C29.7438 26.627 29.1102 27.1459 27.8763 27.3081C28.3098 27.4703 28.7434 27.827 29.1102 28.3784L30.2441 29.9351H29.1435L28.2765 28.7351C27.943 28.2811 27.7095 27.9892 27.5094 27.7946C27.3427 27.6324 27.1426 27.5027 26.9758 27.4378C26.8091 27.373 26.5756 27.3405 26.3088 27.3405H25.275V29.9027H24.4413Z" fill="#132048"/>
<path d="M40.7491 27.1135C40.7491 27.7622 40.9492 28.3135 41.3828 28.7351C41.783 29.1568 42.3499 29.3514 43.0169 29.3514C43.784 29.3514 44.3509 29.1243 44.7177 28.6703C45.0846 28.2162 45.2847 27.6649 45.2847 27.0162C45.2847 26.2378 45.0512 25.6541 44.6177 25.2649C44.1841 24.8757 43.6506 24.6811 43.0169 24.6811C42.2165 24.6811 41.6496 24.9081 41.2827 25.3622C40.9159 25.8486 40.7491 26.4 40.7491 27.1135ZM39.8487 27.0811C39.8487 26.4649 39.9821 25.9135 40.2489 25.4595C40.5157 25.0054 40.8825 24.6486 41.3494 24.3892C41.8163 24.1297 42.3833 24.0324 43.0169 24.0324C43.9507 24.0324 44.7177 24.2919 45.2847 24.8432C45.885 25.3946 46.1518 26.1081 46.1518 27.0162C46.1518 27.9892 45.8516 28.7351 45.218 29.2541C44.5843 29.7405 43.8506 30 42.9836 30C42.0498 30 41.2827 29.7081 40.6825 29.1568C40.1489 28.6054 39.8487 27.9243 39.8487 27.0811Z" fill="#132048"/>
<path d="M60.6254 24.1297H61.4925V27.4703C61.4925 27.9568 61.4258 28.3784 61.3258 28.7351C61.2257 29.1243 60.9589 29.4162 60.5587 29.6432C60.1585 29.8703 59.6249 30 58.9246 30C57.9908 30 57.3238 29.8054 56.9236 29.4162C56.5234 29.027 56.3233 28.3784 56.3233 27.4703V24.1297H57.1904V27.4703C57.1904 27.827 57.2238 28.1838 57.2905 28.4432C57.3572 28.7027 57.5239 28.9297 57.7907 29.0919C58.0575 29.2541 58.4244 29.3514 58.8579 29.3514C59.4915 29.3514 59.9584 29.2216 60.2252 28.9622C60.5254 28.7027 60.6254 28.2162 60.6254 27.5027V24.1297Z" fill="#132048"/>
<path d="M72.8313 26.8865H74.5321C75.566 26.8865 76.0996 26.5297 76.0996 25.8162C76.0996 25.5568 76.0329 25.3622 75.9328 25.2C75.7994 25.0378 75.666 24.9405 75.4659 24.8757C75.2658 24.8108 74.9657 24.8108 74.5321 24.8108H72.8313V26.8865ZM71.9642 24.1297H74.4654C74.999 24.1297 75.4659 24.1622 75.7994 24.2595C76.1329 24.3243 76.4331 24.5189 76.6665 24.8108C76.8999 25.1027 77 25.427 77 25.8162C77 26.9838 76.1663 27.5676 74.5321 27.5676H72.8313V29.9351H71.9642V24.1297Z" fill="#132048"/>
<path d="M11.3349 27.6649V26.9514H14.1363V29.0919C13.2692 29.7081 12.3688 30 11.4016 30C10.4012 30 9.56742 29.7405 8.93378 29.1892C8.33349 28.6703 8 27.9243 8 27.0162C8 26.173 8.26679 25.4595 8.83373 24.8757C9.36733 24.2919 10.2011 24 11.3349 24C12.8023 24 13.7028 24.5838 14.0362 25.7189L13.2359 25.9135C12.9691 25.0703 12.3354 24.6487 11.3349 24.6487C10.5679 24.6487 9.96762 24.8432 9.53407 25.2649C9.13388 25.6865 8.90043 26.2378 8.90043 26.9838C8.90043 27.7946 9.13388 28.3784 9.60077 28.7676C10.0677 29.1243 10.6346 29.3189 11.3349 29.3189C12.102 29.3189 12.7356 29.1243 13.2692 28.7351V27.6649H11.3349Z" fill="#132048"/>
<path d="M21.293 17.7039H16.6812L11.6768 12.752H4.93893V9.67724H13.3122C14.7841 9.67724 15.8962 9.32123 16.6484 8.60919C17.3026 7.96188 17.6297 7.18511 17.5643 6.24652C17.4334 4.14277 16.027 3.10707 13.3122 3.10707H3.10727V17.7362H0V0H12.8543C15.5691 0 17.597 0.647307 19.0034 1.94192C20.1809 3.00998 20.8024 4.46642 20.8351 6.21415C20.9005 7.60586 20.508 8.83574 19.723 9.9038C18.8399 11.1013 17.5643 11.9105 15.8635 12.3636L21.293 17.7039Z" fill="#132048"/>
<path d="M38.9227 16.83L27.4749 5.43738V17.7039H24.3676V1.55354C24.3676 1.06806 24.4984 0.712038 24.7274 0.42075C24.989 0.129461 25.3161 0 25.7086 0C26.2974 0 26.8861 0.291288 27.4749 0.90623L38.9227 12.2988V0H42.03V16.1827C42.03 17.3155 41.6375 17.898 40.8525 17.898C40.2964 17.898 39.6423 17.542 38.9227 16.83Z" fill="#132048"/>
<path d="M79.7623 16.2474C79.0428 17.3478 78.4213 17.9304 77.898 17.9951C77.3092 18.0599 76.6224 17.4773 75.8701 16.2474L65.8941 0H69.9172L77.898 13.1727L85.9769 0H90L79.7623 16.2474Z" fill="#132048"/>
<path d="M46.7072 17.7039V0H56.8141C59.6924 0 61.9492 0.90623 63.6174 2.71869C65.0892 4.30459 65.8415 6.31125 65.8415 8.67392C65.8415 11.1013 65.0892 13.1727 63.5519 14.8881C61.8838 16.7653 59.627 17.7039 56.8468 17.7039H46.7072ZM49.8145 3.07471V14.6291H56.8141C58.7438 14.6291 60.2484 14.0142 61.3605 12.752C62.3417 11.6515 62.7997 10.2598 62.7342 8.67392C62.6688 7.15275 62.1782 5.85813 61.1642 4.82244C60.0522 3.65729 58.613 3.07471 56.8468 3.07471H49.8145Z" fill="#132048"/>
</svg>
