<svg width="32" height="32" viewBox="0 0 32 32" fill="none" xmlns="http://www.w3.org/2000/svg">
<g clip-path="url(#clip0_87_222)">
<path d="M29.1971 7H2.91676C2.45838 7 2 7.45838 2 7.91676C2 8.37513 2.45838 8.83351 2.91676 8.83351H4.29189V24.1128H6.1254V21.9737H9.79243V24.1128H11.6259V20.9041L18.196 17.0843L25.8357 21.5153V24.1128H27.6692V8.83351H29.0443C29.5027 8.83351 29.9611 8.37513 29.9611 7.91676C30.1139 7.30559 29.8083 7 29.1971 7ZM25.9885 8.83351V10.5142L18.3488 14.9452L11.7787 11.1254V8.83351H25.9885ZM9.79243 20.1402H6.1254V17.5427H9.79243V20.1402ZM9.79243 15.7092H6.1254V13.1117H9.79243V15.7092ZM9.79243 11.1254H6.1254V8.83351H9.79243V11.1254ZM11.7787 18.765V13.4173L16.5153 16.1676L11.7787 18.765ZM20.1823 16.0148L25.9885 12.6533V19.2234L20.1823 16.0148Z" fill="#393131"/>
</g>
<defs>
<clipPath id="clip0_87_222">
<rect width="32" height="32" fill="white"/>
</clipPath>
</defs>
</svg>
